<svg version="1.0" id="Layer_1" xmlns="http://www.w3.org/2000/svg" xmlns:xlink="http://www.w3.org/1999/xlink" x="0px" y="0px"
	 width="210px" height="316.2px" viewBox="0 0 210 316.2" style="enable-background:new 0 0 210 316.2;" xml:space="preserve">
<g>
	<path style="&st0;" d="M94.6,83.9l-55,126.3v14l9.9-10.7L96.4,84.6C95.8,84.4,95.2,84.1,94.6,83.9"/>
	<path style="&st0;" d="M90.7,81.7L29.3,189.6L26.6,205l11.1-10.6L92.3,82.7C91.8,82.4,91.2,82.1,90.7,81.7"/>
	<path style="&st0;" d="M87.6,79.3l-66.8,85l-6,16.2l13.4-8.9l60.5-91.4C88.3,80,87.9,79.6,87.6,79.3"/>
	<path style="&st0;" d="M84.4,75.9l-69.5,63.9l-5.2,13.5l11.2-4.5l64.8-71.4C85.2,76.9,84.8,76.4,84.4,75.9"/>
	<path style="&st0;" d="M82.2,72.3l-66.5,41.1l-7.2,10.4l10.5-1.7l64.3-47.9C82.9,73.5,82.5,72.9,82.2,72.3"/>
	<path style="&st0;" d="M80.6,68.3L18.9,91.9l-8.5,8.4l11.8-0.7l59.1-29.4C81,69.6,80.8,69,80.6,68.3"/>
	<path style="&st0;" d="M79.7,64.1l-54.5,8.8l-9.2,5.7l10.3,2L80,65.9C79.9,65.3,79.8,64.7,79.7,64.1"/>
	<path style="&st0;" d="M30.8,57.5l-7.2,2.9l7.2,3l48.8-2.2c0-0.5,0-1,0.1-1.5L30.8,57.5z"/>
	<path style="&st0;" d="M32,48.4l7.5,4.2L80,56.9c0.1-0.6,0.2-1.2,0.4-1.8l-39.6-8.6L32,48.4z"/>
	<path style="&st0;" d="M49.4,36.4h-9.2l6.9,5.5l34.3,10.4c0.2-0.5,0.4-1,0.6-1.5L49.4,36.4z"/>
	<path style="&st0;" d="M56.6,27.6l-6.3-0.4l3.1,5.5l30.1,15.5c0.3-0.4,0.6-0.9,0.9-1.3L56.6,27.6z"/>
	<path style="&st0;" d="M66.1,21.2l-6.3-1.5l1.9,5.9l24.6,19.1c0.4-0.4,0.7-0.8,1.1-1.1L66.1,21.2z"/>
	<path style="&st0;" d="M89.8,41.5c0.5-0.3,0.9-0.6,1.4-1l-16-25.7L69.2,12l0.9,6.6L89.8,41.5z"/>
	<path style="&st0;" d="M95.5,38.4L85,9.8l-5.2-3.6l-0.5,6.3L94.1,39C94.5,38.8,95,38.6,95.5,38.4"/>
	<path style="&st0;" d="M98.9,37.4c0.6-0.1,1.1-0.3,1.7-0.3L96.2,7.1l-4.3-4.7l-1.6,6.2L98.9,37.4z"/>
	<path style="&st0;" d="M105,36.6c0.3,0,0.6,0,0.9,0l2.1-31L105,0l-3,5.4l2.2,31.2C104.4,36.6,104.7,36.6,105,36.6"/>
	<path style="&st0;" d="M115.4,83.9c-0.6,0.3-1.2,0.5-1.8,0.7l46.9,128.8l9.9,10.7v-14L115.4,83.9z"/>
	<path style="&st0;" d="M119.3,81.7c-0.6,0.4-1.1,0.7-1.6,1l54.6,111.7l11.1,10.6l-2.8-15.4L119.3,81.7z"/>
	<path style="&st0;" d="M122.4,79.3c-0.4,0.3-0.7,0.6-1.1,1l60.5,91.4l13.4,8.9l-6-16.2L122.4,79.3z"/>
	<path style="&st0;" d="M189.1,148.8l11.2,4.5l-5.2-13.5l-69.5-63.9c-0.4,0.5-0.8,1-1.3,1.6L189.1,148.8z"/>
	<path style="&st0;" d="M191.1,122.1l10.5,1.7l-7.2-10.4l-66.5-41.1c-0.3,0.6-0.7,1.3-1.1,1.9L191.1,122.1z"/>
	<path style="&st0;" d="M187.8,99.6l11.8,0.7l-8.5-8.4l-61.7-23.6c-0.2,0.7-0.4,1.3-0.6,1.9L187.8,99.6z"/>
	<path style="&st0;" d="M193.9,78.6l-9.2-5.7l-54.5-8.8c-0.1,0.6-0.2,1.2-0.3,1.8l53.6,14.8L193.9,78.6z"/>
	<path style="&st0;" d="M179.2,63.3l7.2-3l-7.2-2.9l-48.9,2.1c0,0.5,0.1,1,0.1,1.5L179.2,63.3z"/>
	<path style="&st0;" d="M169.2,46.5l-39.6,8.6c0.2,0.6,0.3,1.2,0.4,1.8l40.5-4.2l7.5-4.2L169.2,46.5z"/>
	<path style="&st0;" d="M160.6,36.4L128,50.9c0.2,0.5,0.4,1,0.6,1.5l34.3-10.4l6.9-5.5H160.6z"/>
	<path style="&st0;" d="M153.4,27.6l-27.7,19.4c0.3,0.4,0.6,0.8,0.9,1.3l30.1-15.5l3.1-5.5L153.4,27.6z"/>
	<path style="&st0;" d="M143.9,21.2l-21.3,22.4c0.4,0.4,0.8,0.7,1.1,1.1l24.6-19.1l1.9-5.9L143.9,21.2z"/>
	<path style="&st0;" d="M120.2,41.5l19.7-22.9l0.9-6.6l-5.9,2.8l-16,25.7C119.3,40.9,119.8,41.2,120.2,41.5"/>
	<path style="&st0;" d="M114.5,38.4c0.5,0.2,1,0.4,1.5,0.6l14.7-26.6l-0.5-6.3L125,9.8L114.5,38.4z"/>
	<path style="&st0;" d="M111.1,37.4l8.6-28.7l-1.6-6.2l-4.3,4.7L109.4,37C110,37.1,110.6,37.2,111.1,37.4"/>
	<path style="&st0;" d="M89.9,253.7c2.8-2.1,4.8-4.1,6.4-6.1l-0.1-0.2c-0.9-1.3-2.1-3-2.3-4.7c-1,0.9-2.1,1.8-3.4,2.8
		c-0.2,0.1-0.4,0.2-0.5,0.2c-0.2,0-0.4-0.1-0.5-0.2c-1.3-0.9-2.4-1.9-3.4-2.8c-0.2,1.7-1.4,3.4-2.3,4.7l-0.1,0.2
		C85.1,249.6,87.2,251.6,89.9,253.7"/>
	<path style="&st0;" d="M52.9,246.7c1.6,2.3,3.8,4.6,7,7c2.8-2.1,4.8-4.1,6.4-6.1l-0.1-0.2c-0.9-1.3-2.1-3-2.3-4.7
		c-1,0.9-2.1,1.8-3.4,2.8c-0.2,0.1-0.4,0.2-0.5,0.2c-0.2,0-0.4-0.1-0.5-0.2c-1.3-0.9-2.4-1.9-3.4-2.8c-0.8,1.1-2.3,2.2-3.7,3.1
		c0.2,0.2,0.3,0.4,0.4,0.7L52.9,246.7z"/>
	<path style="&st0;" d="M84.2,242.3c0-0.5-0.1-0.9-0.3-1.2H81c-0.2,0.3-0.3,0.8-0.3,1.2c0,1.1,0.9,2.6,1.7,3.8
		C83.2,244.9,84.2,243.4,84.2,242.3"/>
	<path style="&st0;" d="M99.2,242.3c0-0.5-0.1-0.9-0.3-1.2H96c-0.2,0.3-0.3,0.8-0.3,1.2c0,1.1,0.9,2.6,1.7,3.8
		C98.2,244.9,99.2,243.4,99.2,242.3"/>
	<path style="&st0;" d="M69.2,242.3c0-0.5-0.1-0.9-0.3-1.2H66c-0.2,0.3-0.3,0.8-0.3,1.2c0,1.1,0.9,2.6,1.7,3.8
		C68.2,244.9,69.2,243.4,69.2,242.3"/>
	<path style="&st0;" d="M74.9,253.7c2.8-2.1,4.8-4.1,6.4-6.1l-0.1-0.2c-0.9-1.3-2.1-3-2.3-4.7c-1.2,1.1-2.4,2-3.4,2.8
		c-0.2,0.1-0.4,0.2-0.5,0.2c-0.2,0-0.4-0.1-0.5-0.2c-1.3-0.9-2.4-1.9-3.4-2.8c-0.2,1.7-1.4,3.4-2.3,4.7l-0.1,0.2
		C70.1,249.6,72.2,251.6,74.9,253.7"/>
	<path style="&st0;" d="M104.9,253.7c2.8-2.1,4.8-4.1,6.4-6.1l-0.1-0.2c-0.9-1.3-2.1-3-2.3-4.7c-1.2,1.1-2.4,2-3.4,2.8
		c-0.2,0.1-0.4,0.2-0.5,0.2c-0.2,0-0.4-0.1-0.5-0.2c-1.3-0.9-2.4-1.9-3.4-2.8c-0.2,1.7-1.4,3.4-2.3,4.7l-0.1,0.2
		C100.1,249.6,102.2,251.6,104.9,253.7"/>
	<path style="&st0;" d="M149.9,253.7c3.2-2.4,5.4-4.6,7-7l0.2-0.3c0.2-0.2,0.3-0.5,0.5-0.7c-1.4-0.9-2.9-2-3.7-3.1
		c-1,0.9-2.2,1.9-3.5,2.9c-0.2,0.1-0.4,0.2-0.5,0.2c-0.2,0-0.4-0.1-0.5-0.2c-1-0.7-2.2-1.7-3.4-2.8c-0.2,1.7-1.4,3.4-2.3,4.7
		l-0.1,0.2C145.1,249.6,147.1,251.6,149.9,253.7"/>
	<path style="&st0;" d="M144.1,242.3c0-0.5-0.1-0.9-0.3-1.2H141c-0.2,0.3-0.3,0.8-0.3,1.2c0,1.1,0.9,2.6,1.7,3.8
		C143.2,244.9,144.1,243.4,144.1,242.3"/>
	<path style="&st0;" d="M165.1,248.9c-1.1-0.4-2.3-0.8-3.5-1.1c-0.2-0.1-1.2-0.5-2.4-1.2c-0.2,0.3-0.4,0.6-0.6,0.8l-0.2,0.3
		c-2.4,3.5-5.7,6.1-8,7.8c-0.2,0.1-0.4,0.2-0.5,0.2c-0.2,0-0.4-0.1-0.5-0.2c-2-1.5-4.7-3.6-6.9-6.4c-2.2,2.8-5,5-6.9,6.4
		c-0.2,0.1-0.4,0.2-0.5,0.2c-0.2,0-0.4-0.1-0.5-0.2c-2-1.5-4.7-3.6-7-6.4c-2.2,2.8-5,5-6.9,6.4c-0.2,0.1-0.4,0.2-0.5,0.2
		c-0.2,0-0.4-0.1-0.5-0.2c-2-1.5-4.7-3.6-7-6.4c-2.2,2.8-5,5-6.9,6.4c-0.2,0.1-0.4,0.2-0.5,0.2c-0.2,0-0.4-0.1-0.5-0.2
		c-2-1.5-4.7-3.6-7-6.4c-2.2,2.8-5,5-6.9,6.4c-0.2,0.1-0.4,0.2-0.5,0.2c-0.2,0-0.4-0.1-0.5-0.2c-2-1.5-4.7-3.6-6.9-6.4
		c-2.2,2.8-5,5-6.9,6.4c-0.2,0.1-0.4,0.2-0.5,0.2c-0.2,0-0.4-0.1-0.5-0.2c-2-1.5-4.7-3.6-6.9-6.4c-2.2,2.8-5,5-6.9,6.4
		c-0.2,0.1-0.4,0.2-0.5,0.2c-0.2,0-0.4-0.1-0.5-0.2c-2.3-1.7-5.6-4.4-8-7.8l-0.2-0.3c-0.2-0.2-0.4-0.5-0.5-0.8
		c-1.3,0.7-2.3,1.1-2.3,1.1h0c-1.2,0.3-2.3,0.7-3.4,1.1c-13.8,4.7-22,11.2-24.1,19l168.3-0.2C187,259.9,178.8,253.5,165.1,248.9"/>
	<path style="&st0;" d="M114.2,242.3c0-0.5-0.1-0.9-0.3-1.2H111c-0.2,0.3-0.3,0.8-0.3,1.2c0,1.1,0.9,2.6,1.7,3.8
		C113.2,244.9,114.2,243.4,114.2,242.3"/>
	<path style="&st0;" d="M119.9,253.7c2.8-2.1,4.8-4.1,6.4-6.1l-0.1-0.2c-0.9-1.3-2.1-3-2.3-4.7c-1,0.9-2.1,1.8-3.4,2.8
		c-0.2,0.1-0.4,0.2-0.5,0.2c-0.2,0-0.4-0.1-0.5-0.2c-1.3-0.9-2.4-1.9-3.4-2.8c-0.2,1.7-1.4,3.4-2.3,4.7l-0.1,0.2
		C115.1,249.6,117.2,251.6,119.9,253.7"/>
	<path style="&st0;" d="M129.2,242.3c0-0.5-0.1-0.9-0.3-1.2H126c-0.2,0.3-0.3,0.8-0.3,1.2c0,1.1,0.9,2.6,1.7,3.8
		C128.2,244.9,129.2,243.4,129.2,242.3"/>
	<path style="&st0;" d="M134.9,253.7c2.8-2.1,4.8-4.1,6.4-6.1l-0.1-0.2c-0.9-1.3-2.1-3-2.3-4.7c-1,0.9-2.1,1.8-3.4,2.8
		c-0.2,0.1-0.4,0.2-0.5,0.2c-0.2,0-0.4-0.1-0.5-0.2c-1.3-0.9-2.4-1.9-3.4-2.8c-0.2,1.7-1.4,3.4-2.3,4.7l-0.1,0.2
		C130.1,249.6,132.1,251.6,134.9,253.7"/>
	<path style="&st0;" d="M44.9,296.5c15.1,5.1,35.9,7.8,60.1,7.8c24.3,0,45-2.7,60.1-7.8c13.8-4.7,22-11,24.1-18.8l-168.3,0
		C23,285.5,31.2,291.9,44.9,296.5"/>
	<path style="&st0;" d="M20.3,275.1c-0.1-0.5-0.1-1.1-0.1-1.7c0-0.8,0.1-1.6,0.2-2.3h169.1c0.1,0.8,0.2,1.5,0.2,2.3
		c0,0.6,0,1.1-0.1,1.7H20.3z"/>
	<path style="&st0;" d="M8.6,256.9L8.6,256.9c3,0,5.8,2.5,6.8,6c0.6,2.1,0.4,4.2-0.5,5.9c-0.8,1.6-2.1,2.8-3.6,3.2
		c-0.4,0.1-0.9,0.2-1.4,0.2c-3,0-5.8-2.5-6.8-6c-0.6-2.1-0.4-4.2,0.5-5.9c0.8-1.6,2.1-2.8,3.6-3.2C7.6,257,8.1,256.9,8.6,256.9
		 M8.6,254.2c-0.7,0-1.4,0.1-2.1,0.3c-4.9,1.3-7.6,6.9-6.1,12.5c1.3,4.8,5.3,8,9.4,8c0.7,0,1.4-0.1,2.1-0.3
		c4.9-1.3,7.6-6.9,6.1-12.5C16.7,257.4,12.7,254.2,8.6,254.2"/>
	<path style="&st0;" d="M13.9,274.9L13.9,274.9c0.3,0,0.6,0.1,0.9,0.2c0.8,0.4,1.4,1.4,1.6,2.7c0.3,1.8-0.1,4-1,6
		c-1.6,3.6-4.4,5.5-6.1,5.5c-0.3,0-0.6-0.1-0.9-0.2c-0.8-0.4-1.4-1.4-1.6-2.7c-0.3-1.8,0.1-4,1-6C9.4,276.8,12.1,274.9,13.9,274.9
		 M13.9,272.1c-3.1,0-6.7,2.8-8.6,7.1c-2.4,5.3-1.5,10.8,2,12.4c0.6,0.3,1.3,0.4,2,0.4c3.1,0,6.7-2.8,8.6-7.1
		c2.4-5.3,1.5-10.8-2-12.4C15.3,272.3,14.6,272.1,13.9,272.1"/>
	<path style="&st0;" d="M13.5,277.9c-2.7,0-4.8-2.2-4.8-4.8c0-2.7,2.2-4.8,4.8-4.8s4.8,2.2,4.8,4.8
		C18.3,275.8,16.2,277.9,13.5,277.9"/>
	<rect x="17.4" y="279.9" style="&st0;" width="1.8" height="15.1"/>
	<path style="&st0;" d="M22.9,297.6c0.3-0.3,0.4-0.7,0.4-1.1c0-0.3-0.1-0.6-0.3-0.9l-4.8-6.1l-4.7,6c-0.2,0.3-0.4,0.6-0.4,1
		c0,0.4,0.2,0.8,0.4,1.1H22.9z"/>
	<rect x="13.2" y="296.5" style="&st0;" width="10.1" height="19.7"/>
	<path style="&st0;" d="M201.4,256.9c0.5,0,0.9,0.1,1.4,0.2c1.6,0.4,2.9,1.5,3.6,3.2c0.9,1.8,1,3.9,0.5,5.9c-0.9,3.5-3.8,6-6.8,6
		c-0.5,0-0.9-0.1-1.4-0.2c-1.6-0.4-2.9-1.5-3.6-3.2c-0.9-1.8-1-3.9-0.5-5.9C195.6,259.4,198.5,256.9,201.4,256.9 M201.4,254.2
		c-4.2,0-8.1,3.2-9.4,8c-1.5,5.6,1.2,11.2,6.1,12.5c0.7,0.2,1.4,0.3,2.1,0.3c4.2,0,8.1-3.2,9.4-8c1.5-5.6-1.2-11.2-6.1-12.5
		C202.8,254.2,202.1,254.2,201.4,254.2"/>
	<path style="&st0;" d="M196.1,274.9c1.8,0,4.5,1.9,6.1,5.5c1.8,4,1.2,7.9-0.6,8.7c-0.3,0.1-0.5,0.2-0.9,0.2c-1.8,0-4.5-1.9-6.1-5.5
		c-0.9-2-1.3-4.2-1-6c0.2-1.4,0.8-2.4,1.6-2.7C195.5,275,195.8,274.9,196.1,274.9 M196.1,272.1c-0.7,0-1.4,0.1-2,0.4
		c-3.5,1.6-4.4,7.1-2,12.4c2,4.3,5.5,7.1,8.6,7.1c0.7,0,1.4-0.1,2-0.4c3.5-1.6,4.4-7.1,2-12.4C202.8,274.9,199.3,272.1,196.1,272.1"
		/>
	<path style="&st0;" d="M196.5,277.9c2.7,0,4.8-2.2,4.8-4.8c0-2.7-2.2-4.8-4.8-4.8s-4.8,2.2-4.8,4.8
		C191.7,275.8,193.8,277.9,196.5,277.9"/>
	<rect x="190.8" y="279.9" style="&st0;" width="1.8" height="15.1"/>
	<path style="&st0;" d="M187.1,297.6c-0.3-0.3-0.4-0.7-0.4-1.1c0-0.3,0.1-0.6,0.3-0.9l4.8-6.1l4.7,6c0.2,0.3,0.4,0.6,0.4,1
		c0,0.4-0.2,0.8-0.4,1.1H187.1z"/>
	<rect x="186.6" y="296.5" style="&st0;" width="10.1" height="19.7"/>
	<path style="&st0;" d="M125.3,201c0.1,3.6,1.4,7,3.7,9.3c1.7,1.7,3.7,4.6,4.4,9.6h-13H89.4H76.5c0.7-5,2.7-8,4.4-9.6
		c2.3-2.3,3.6-5.7,3.7-9.3H125.3 M127.1,199.2H82.7v1.5c0,3.3-1.2,6.3-3.2,8.3c-2.2,2.2-4.7,6.1-5.1,12.8h15h30.9h15
		c-0.4-6.7-2.9-10.6-5.1-12.8c-2-2-3.1-5.1-3.1-8.3V199.2z"/>
	<path style="&st0;" d="M105,56.1l0.2,0c2.1,0.2,3.7,1.9,3.7,4c0,2.2-1.8,4-4,4c-2.2,0-4-1.8-4-4c0-2,1.6-3.8,3.7-4l0.2,0L105,56.1
		 M105.3,54.3l-1,0v0c-3,0.3-5.3,2.8-5.3,5.8c0,3.2,2.6,5.8,5.8,5.8s5.8-2.6,5.8-5.8C110.7,57.1,108.3,54.5,105.3,54.3L105.3,54.3z"
		/>
	<path style="&st0;" d="M106.7,73.1l0,7.5c0,1.8,0.1,3.7,0.3,5.5l3.8,30.6H99l3.8-30.6c0.2-1.3,0.3-4.9,0.3-5.4v-7.5H106.7
		 M108.5,71.2h-7.2v9.4c0,0.5-0.1,4-0.3,5.2l-4.1,32.6h15.9l-4.1-32.6c-0.2-1.7-0.3-3.5-0.3-5.2V71.2z"/>
	<path style="&st0;" d="M115.5,153.4l3.1,14.4l0.1,0.3l0.2,0.3c0.3,0.4,0.5,0.8,0.8,1.1c1,1.4,2.3,4,2.7,8.2h-7.6H95.1h-7.5
		c0.4-4.2,1.7-6.8,2.7-8.2c0.3-0.4,0.5-0.8,0.8-1.2l0.2-0.3l0.1-0.3l3.1-14.4H115.5 M117,151.6H93l-3.4,15.8
		c-0.3,0.4-0.5,0.8-0.8,1.1c-1.4,1.9-3,5.3-3.2,11.1H87h8.1h19.7h8.2h1.4c-0.3-5.8-1.9-9.3-3.2-11.1c-0.2-0.3-0.5-0.7-0.7-1.1
		L117,151.6z"/>
	<path style="&st0;" d="M110.9,123.3c0,2.2,0.5,4.2,1.4,5.6c0.1,0.1,0.2,0.2,0.3,0.4c0.5,0.8,1.2,1.8,1.5,3.2v4.5v1.9H105h-0.1h-9.1
		V137v-4.5c0.3-1.4,0.9-2.4,1.4-3.2c0.1-0.1,0.2-0.3,0.3-0.4c0.9-1.4,1.4-3.4,1.4-5.6H110.9 M112.8,121.5H97v1.8
		c0,1.8-0.4,3.5-1.1,4.7c-0.5,0.9-1.6,2.3-2,4.4v4.6v3.8h10.9h0.1h10.9V137v-4.6c-0.4-2.1-1.4-3.5-2-4.4c-0.7-1.1-1.1-2.8-1.1-4.7
		V121.5z"/>
	<path style="&st0;" d="M104.9,135.1c-1.9,0-3.5-1.6-3.5-3.5c0-1.9,1.6-3.5,3.5-3.5c1.9,0,3.5,1.6,3.5,3.5
		C108.4,133.5,106.8,135.1,104.9,135.1"/>
	<path style="&st0;" d="M104.9,162.5c-1.9,0-3.5-1.6-3.5-3.5c0-1.9,1.6-3.5,3.5-3.5c1.9,0,3.5,1.6,3.5,3.5
		C108.4,160.9,106.8,162.5,104.9,162.5"/>
	<path style="&st0;" d="M117.6,144.9c0.4,0,0.7,0.3,0.7,0.7v0.4c0,0.4-0.3,0.7-0.7,0.7H92.3c-0.4,0-0.7-0.3-0.7-0.7v-0.4
		c0-0.4,0.3-0.7,0.7-0.7H117.6 M117.6,143.1H92.3c-1.4,0-2.5,1.1-2.5,2.5v0.4c0,1.4,1.1,2.5,2.5,2.5h25.3c1.4,0,2.5-1.1,2.5-2.5
		v-0.4C120.1,144.2,119,143.1,117.6,143.1"/>
	<path style="&st0;" d="M99.6,221.7H80.4l-0.3-0.3c-0.7-0.9-1.1-1.9-1.1-2.9c0-0.9,0.3-1.8,0.9-2.7L90,201.5l10.3,14.5
		c0.4,0.6,0.8,1.4,0.8,2.5c0,1.1-0.4,2.1-1.1,2.9L99.6,221.7z M81.2,219.9h17.5c0.2-0.4,0.4-0.8,0.4-1.4c0-0.5-0.1-0.9-0.5-1.5
		L90,204.7l-8.5,12.1c-0.4,0.6-0.6,1.2-0.6,1.7C80.8,219.1,81,219.5,81.2,219.9"/>
	<path style="&st0;" d="M114.5,221.7H95.3l-0.3-0.3c-0.7-0.9-1.1-1.9-1.1-2.9c0-0.9,0.3-1.8,0.9-2.7l10.1-14.2l10.3,14.5
		c0.4,0.6,0.8,1.4,0.8,2.5c0,1.1-0.4,2.1-1.1,2.9L114.5,221.7z M96.1,219.9h17.5c0.2-0.4,0.4-0.8,0.4-1.4c0-0.5-0.1-0.9-0.5-1.5
		l-8.7-12.3l-8.5,12.1c-0.4,0.6-0.6,1.2-0.6,1.7C95.7,219.1,95.9,219.5,96.1,219.9"/>
	<path style="&st0;" d="M129.4,221.7h-19.3l-0.3-0.3c-0.7-0.9-1.1-1.9-1.1-2.9c0-0.9,0.3-1.8,0.9-2.7l10.1-14.2L130,216
		c0.4,0.6,0.8,1.4,0.8,2.5c0,1.1-0.4,2.1-1.1,2.9L129.4,221.7z M111.1,219.9h17.5c0.2-0.4,0.4-0.8,0.4-1.4c0-0.5-0.1-0.9-0.5-1.5
		l-8.7-12.3l-8.5,12.1c-0.4,0.6-0.6,1.2-0.6,1.7C110.6,219.1,110.8,219.5,111.1,219.9"/>
	<path style="&st0;" d="M81.1,159.1c1.5,1.7,1.5,3.1,1.5,3.2l0,0.1l0,0.1c0,0.1,0,1.5-1.5,3.2c-0.1-0.1-0.2-0.3-0.2-0.4l-0.1-0.2
		l0-0.1l0-0.1c0,0-0.6-1-0.6-2.6c0-1.6,0.6-2.6,0.6-2.6l0-0.1l0-0.1l0.1-0.2C80.9,159.4,81,159.2,81.1,159.1 M79.1,155.3
		c0.3,0.5,0.5,1.1,0.6,1.7c0.1,0.8-0.2,1.1-0.6,1.7c0,0-0.9,1.3-0.9,3.6c0,2.2,0.9,3.6,0.9,3.6c0.3,0.6,0.6,1,0.6,1.7
		c0,0.6-0.2,1.2-0.6,1.7c0.8-0.3,1.4-0.7,1.9-1.2c3.4-2.8,3.4-5.6,3.4-5.9c0-0.2,0-3.1-3.4-5.9C80.5,155.9,79.9,155.5,79.1,155.3"/>
	<path style="&st0;" d="M89.5,168.5c-0.6-2.9-3.3-5-6.2-5v-1.8c3.8,0,7.2,2.7,8,6.5L89.5,168.5z"/>
	<path style="&st0;" d="M128.8,159.1c0.1,0.1,0.2,0.3,0.2,0.4l0.1,0.2l0,0.1l0,0.1c0,0,0.6,1,0.6,2.6c0,1.6-0.6,2.6-0.6,2.6l0,0.1
		l0,0.1l-0.1,0.2c-0.1,0.1-0.2,0.3-0.2,0.4c-1.5-1.7-1.5-3.1-1.5-3.2l0-0.1l0-0.1C127.4,162.2,127.4,160.8,128.8,159.1 M130.8,155.3
		c-0.8,0.3-1.4,0.7-1.9,1.2c-3.4,2.8-3.4,5.6-3.4,5.9c0,0.2,0,3.1,3.4,5.9c0.5,0.5,1.1,0.9,1.9,1.2c-0.3-0.5-0.5-1.1-0.6-1.7
		c-0.1-0.8,0.2-1.1,0.6-1.7c0,0,0.9-1.3,0.9-3.6c0-2.2-0.9-3.6-0.9-3.6c-0.3-0.6-0.6-1-0.6-1.7C130.2,156.4,130.4,155.8,130.8,155.3
		"/>
	<path style="&st0;" d="M120.4,168.2l-1.8-0.5c1-3.6,4.2-6.1,8-6.1v1.8C123.7,163.5,121.2,165.4,120.4,168.2"/>
	<path style="&st0;" d="M86.1,127.2c1.5,1.7,1.5,3.1,1.5,3.2l0,0.1l0,0.1c0,0.1,0,1.5-1.5,3.2c-0.1-0.1-0.2-0.3-0.2-0.4l-0.1-0.2
		l0-0.1l0-0.1c0,0-0.6-1-0.6-2.6c0-1.6,0.6-2.6,0.6-2.6l0-0.1l0-0.1l0.1-0.2C85.9,127.5,86,127.4,86.1,127.2 M84.2,123.4
		c0.3,0.5,0.5,1.1,0.6,1.7c0.1,0.8-0.2,1.1-0.6,1.7c0,0-0.9,1.3-0.9,3.6c0,2.2,0.9,3.6,0.9,3.6c0.3,0.6,0.6,1,0.6,1.7
		c0,0.6-0.2,1.2-0.6,1.7c0.8-0.3,1.4-0.7,1.9-1.2c3.4-2.8,3.4-5.6,3.4-5.9c0-0.2,0-3.1-3.4-5.9C85.6,124.1,84.9,123.7,84.2,123.4"/>
	<path style="&st0;" d="M93.9,134.8c-1.1-2-3.3-3.2-5.6-3.2v-1.8c2.9,0,5.7,1.6,7.2,4.1L93.9,134.8z"/>
	<path style="&st0;" d="M123.7,127.3c0.1,0.1,0.2,0.3,0.2,0.4l0.1,0.2l0,0.1l0,0.1c0,0,0.6,1,0.6,2.6c0,1.6-0.6,2.6-0.6,2.6l0,0.1
		l0,0.1l-0.1,0.2c-0.1,0.1-0.2,0.3-0.2,0.4c-1.5-1.7-1.5-3.1-1.5-3.2l0-0.1l0-0.1C122.2,130.4,122.2,129,123.7,127.3 M125.6,123.5
		c-0.8,0.3-1.4,0.7-1.9,1.2c-3.4,2.8-3.4,5.6-3.4,5.9c0,0.2,0,3.1,3.4,5.9c0.5,0.5,1.1,0.9,1.9,1.2c-0.3-0.5-0.5-1.1-0.6-1.7
		c-0.1-0.8,0.2-1.1,0.6-1.7c0,0,0.9-1.3,0.9-3.6c0-2.2-0.9-3.6-0.9-3.6c-0.3-0.6-0.6-1-0.6-1.7C125.1,124.6,125.3,124,125.6,123.5"
		/>
	<path style="&st0;" d="M115.9,134.8l-1.6-0.9c1.5-2.5,4.2-4.1,7.1-4.1v1.8C119.2,131.6,117,132.9,115.9,134.8"/>
	<path style="&st0;" d="M71,183.3c1.5,1.7,1.5,3.1,1.5,3.2l0,0.1l0,0.1c0,0.1,0,1.5-1.5,3.2c-0.1-0.1-0.2-0.3-0.2-0.4l-0.1-0.2l0,0
		l0-0.1c0,0-0.6-1-0.6-2.6c0-1.6,0.6-2.6,0.6-2.6l0-0.1l0-0.1l0.1-0.2C70.8,183.6,70.9,183.4,71,183.3 M69,179.5
		c0.3,0.5,0.5,1.1,0.6,1.7c0.1,0.8-0.2,1.1-0.6,1.7c0,0-0.9,1.3-0.9,3.6c0,2.2,0.9,3.6,0.9,3.6c0.3,0.6,0.6,1,0.6,1.7
		c0,0.6-0.2,1.2-0.6,1.7c0.8-0.3,1.4-0.7,1.9-1.2c3.4-2.8,3.4-5.6,3.4-5.9c0-0.2,0-3.1-3.4-5.9C70.5,180.1,69.8,179.7,69,179.5"/>
	<path style="&st0;" d="M79.5,193.1c-0.5-3.1-3.2-5.4-6.3-5.4v-1.8c4,0,7.5,3,8.1,7L79.5,193.1z"/>
	<path style="&st0;" d="M139,183.3c0.1,0.1,0.2,0.3,0.2,0.4l0.1,0.2l0,0l0,0.1c0,0,0.6,1,0.6,2.6c0,1.6-0.6,2.6-0.6,2.6l0,0.1l0,0.1
		l-0.1,0.2c-0.1,0.1-0.2,0.3-0.2,0.4c-1.5-1.7-1.5-3.1-1.5-3.2l0-0.1l0-0.1C137.6,186.4,137.6,185,139,183.3 M141,179.5
		c-0.8,0.3-1.4,0.7-1.9,1.2c-3.4,2.8-3.4,5.6-3.4,5.9c0,0.2,0,3.1,3.4,5.9c0.5,0.5,1.1,0.9,1.9,1.2c-0.3-0.5-0.5-1.1-0.6-1.7
		c-0.1-0.8,0.2-1.1,0.6-1.7c0,0,0.9-1.3,0.9-3.6c0-2.2-0.9-3.6-0.9-3.6c-0.3-0.6-0.6-1-0.6-1.7C140.4,180.6,140.6,180,141,179.5"/>
	<path style="&st0;" d="M130.5,193.1l-1.8-0.3c0.6-4,4.1-7,8.1-7v1.8C133.6,187.7,130.9,190,130.5,193.1"/>
	<path style="&st0;" d="M125.1,184.7L125.1,184.7L125.1,184.7l0.2,0l0,0c2.6,0,4.7,2.1,4.7,4.7c0,2.6-2.1,4.7-4.7,4.7
		c0,0-0.1,0-0.1,0l-0.1,0H84.7l0,0l-0.1,0l0,0l0,0c0,0-0.1,0-0.1,0c-2.6,0-4.7-2.1-4.7-4.7c0-2.6,2.1-4.7,4.7-4.7l0,0l0.1,0l0,0l0,0
		c0,0,0.1,0,0.1,0H125.1 M125.2,182.8C125.2,182.8,125.2,182.8,125.2,182.8C125.2,182.8,125.2,182.8,125.2,182.8H84.7
		c0,0-0.1,0-0.1,0c0,0-0.1,0-0.1,0c-3.6,0-6.6,3-6.6,6.6s3,6.6,6.6,6.6c0,0,0.1,0,0.1,0c0,0,0.1,0,0.1,0h40.5c0,0,0,0,0,0
		c0,0,0,0,0,0c3.6,0,6.6-3,6.6-6.6S128.9,182.8,125.2,182.8"/>
	<polygon style="&st0;" points="113.1,194.9 116.1,194.9 123,189.5 116.1,184.1 113.1,184.1 120,189.5 	"/>
	<polygon style="&st0;" points="97,194.9 90.1,189.5 97,184.1 94,184.1 87.1,189.5 94,194.9 	"/>
	<path style="&st0;" d="M105.1,193c-1.9,0-3.5-1.6-3.5-3.5c0-1.9,1.6-3.5,3.5-3.5c1.9,0,3.5,1.6,3.5,3.5
		C108.6,191.4,107,193,105.1,193"/>
	<path style="&st0;" d="M134.3,226.9L134.3,226.9l0.1,0l0.1,0c2.6,0,4.7,2.1,4.7,4.7c0,2.6-2.1,4.7-4.7,4.7c0,0,0,0-0.1,0l-0.1,0
		l0,0H75.5l0,0l-0.1,0l0,0l0,0c0,0-0.1,0-0.1,0c-2.6,0-4.7-2.1-4.7-4.7c0-2.6,2.1-4.7,4.7-4.7l0.1,0l0.1,0c0,0,0.1,0,0.1,0H134.3
		 M134.5,225.1C134.4,225.1,134.4,225.1,134.5,225.1C134.4,225.1,134.4,225.1,134.5,225.1h-59c0,0-0.1,0-0.1,0c0,0-0.1,0-0.1,0
		c-3.6,0-6.6,3-6.6,6.6c0,3.6,3,6.6,6.6,6.6c0,0,0.1,0,0.1,0c0,0,0.1,0,0.1,0h58.9c0,0,0,0,0,0c0,0,0,0,0,0c3.6,0,6.6-3,6.6-6.6
		C141,228,138.1,225.1,134.5,225.1"/>
	<polygon style="&st0;" points="119.4,237.8 122.4,237.8 130.2,231.7 123,226 120,226 127.2,231.7 	"/>
	<polygon style="&st0;" points="112,237.8 115,237.8 122.8,231.7 115.6,226 112.6,226 119.8,231.7 	"/>
	<polygon style="&st0;" points="97.8,237.8 90,231.7 97.2,226 94.2,226 87,231.7 94.8,237.8 	"/>
	<polygon style="&st0;" points="90.6,237.8 82.8,231.7 90.1,226 87.1,226 79.9,231.7 87.7,237.8 	"/>
	<path style="&st0;" d="M104.9,235.2c-1.9,0-3.5-1.6-3.5-3.5c0-1.9,1.6-3.5,3.5-3.5c1.9,0,3.5,1.6,3.5,3.5
		C108.4,233.6,106.8,235.2,104.9,235.2"/>
	<path style="&st0;" d="M73.8,235.2c-1.9,0-3.5-1.6-3.5-3.5c0-1.9,1.6-3.5,3.5-3.5c1.9,0,3.5,1.6,3.5,3.5
		C77.3,233.6,75.8,235.2,73.8,235.2"/>
	<path style="&st0;" d="M136,235.2c-1.9,0-3.5-1.6-3.5-3.5c0-1.9,1.6-3.5,3.5-3.5c1.9,0,3.5,1.6,3.5,3.5
		C139.6,233.6,138,235.2,136,235.2"/>
	<path style="&st0;" d="M123,177.8h-7.1c0.1-0.4,0.2-0.8,0.2-1.2c0-1-0.4-1.8-0.8-2.3l-1.6-2.1l5.1-6.5l-0.5-2.4l-5.8,7.4l-7.5-9.6
		l-7.5,9.6l-6.2-7.8l-0.6,2.2l5.6,7.2l-1.4,1.8c-0.7,0.9-1,1.7-1,2.6c0,0.4,0.1,0.8,0.2,1.2h-7.7l-0.2,1.8h9.1h4.3h10.7h4.3h8.7
		L123,177.8z M98.8,177.8h-2.7c-0.2-0.3-0.4-0.7-0.4-1.2c0-0.5,0.2-0.9,0.6-1.5l1.1-1.4l1.3,1.7c0.3,0.5,0.5,0.9,0.5,1.3
		C99.2,177.1,99,177.5,98.8,177.8 M109.9,174.1c-0.7,0.9-1,1.7-1,2.6c0,0.4,0.1,0.8,0.2,1.2h-8.3c0.1-0.4,0.2-0.8,0.2-1.2
		c0-1-0.4-1.8-0.8-2.3l-1.6-2.1l6.3-8.1l6.4,8.1L109.9,174.1z M113.8,177.8h-2.7c-0.2-0.3-0.4-0.7-0.4-1.2c0-0.5,0.2-0.9,0.6-1.5
		l1.1-1.4l1.3,1.7c0.3,0.5,0.5,0.9,0.5,1.3C114.2,177.1,114,177.5,113.8,177.8"/>
	<polygon style="&st0;" points="116.2,200.2 112.4,205.5 108.6,200.2 106.3,200.2 112.4,208.7 118.4,200.2 	"/>
	<polygon style="&st0;" points="101.3,200.2 97.5,205.5 93.7,200.2 91.4,200.2 97.5,208.7 103.5,200.2 	"/>
</g>
</svg>
